<?xml version="1.0" encoding="utf-8"?>
<!-- Generator: Adobe Illustrator 27.5.0, SVG Export Plug-In . SVG Version: 6.00 Build 0)  -->
<svg version="1.1" id="Calque_1" xmlns="http://www.w3.org/2000/svg" xmlns:xlink="http://www.w3.org/1999/xlink" x="0px" y="0px"
	 viewBox="0 0 1000 297" style="enable-background:new 0 0 1000 297;" xml:space="preserve">
<style type="text/css">
	.st0{fill:#0037a1;}
</style>
<g>
	<path class="st0" d="M0,4.7h37.1v256.5H160v31.2H0V4.7z"/>
	<path class="st0" d="M430.5,145.5c0,99-60.2,151.5-133.5,151.5c-75.9,0-129.3-58.9-129.3-145.9C167.7,59.7,224.4,0,301.2,0
		C379.7,0,430.5,60.2,430.5,145.5z M207.3,150.2c0,61.4,33.3,116.5,91.7,116.5c58.9,0,92.2-54.2,92.2-119.5
		c0-57.2-29.9-116.9-91.7-116.9C238.1,30.3,207.3,87.1,207.3,150.2z"/>
	<path class="st0" d="M697.5,279.5c-16.6,6-49.5,15.8-88.3,15.8c-43.5,0-79.4-11.1-107.5-38c-24.7-23.9-40.1-62.3-40.1-107.1
		C462,64.4,520.9,1.7,617.3,1.7c33.3,0,59.3,7.3,71.7,13.2l-9,30.3c-15.4-6.8-34.6-12.4-63.6-12.4c-70,0-115.6,43.5-115.6,115.6
		c0,73,43.9,116.1,110.9,116.1c24.3,0,41-3.4,49.5-7.7v-85.8h-58.4v-29.9h94.7V279.5z"/>
	<path class="st0" d="M1000,145.5c0,99-60.2,151.5-133.5,151.5c-75.9,0-129.3-58.9-129.3-145.9C737.2,59.7,793.9,0,870.7,0
		C949.2,0,1000,60.2,1000,145.5z M776.9,150.2c0,61.4,33.3,116.5,91.7,116.5c58.9,0,92.2-54.2,92.2-119.5
		c0-57.2-29.9-116.9-91.7-116.9C807.6,30.3,776.9,87.1,776.9,150.2z"/>
</g>
</svg>
