<?xml version="1.0" encoding="utf-8"?>
<!-- Generator: Adobe Illustrator 27.5.0, SVG Export Plug-In . SVG Version: 6.00 Build 0)  -->
<svg version="1.1" id="Calque_1" xmlns="http://www.w3.org/2000/svg" xmlns:xlink="http://www.w3.org/1999/xlink" x="0px" y="0px"
	 viewBox="0 0 100 100" style="enable-background:new 100 100 100 100;" xml:space="preserve">
<path d="M81.2,37.7c10.4,0,18.8-8.5,18.8-18.8C100,8.5,91.6,0,81.2,0C70.8,0,62.4,8.5,62.4,18.8c0,2.2,0.4,4.3,1.1,6.2L26.7,42.2
	c-2.6-4.1-7.1-6.8-12.3-6.8C6.5,35.4,0,41.9,0,49.9c0,8,6.5,14.5,14.5,14.5c5,0,9.5-2.6,12.1-6.5l42.5,20.9c-0.6,1.7-1,3.4-1,5.3
	c0,8.8,7.1,15.9,15.9,15.9S100,92.9,100,84.1c0-8.8-7.1-15.9-15.9-15.9c-5.6,0-10.5,2.9-13.4,7.3L28.2,54.6c0.5-1.5,0.8-3,0.8-4.7
	c0-1.5-0.3-3-0.7-4.4L65,28.4C68.3,33.9,74.3,37.7,81.2,37.7L81.2,37.7z M84.1,71.8c6.7,0,12.2,5.5,12.2,12.2
	c0,6.8-5.5,12.2-12.2,12.2c-6.7,0-12.2-5.5-12.2-12.2C71.9,77.3,77.4,71.8,84.1,71.8z M14.5,60.7c-6,0-10.8-4.9-10.8-10.8
	s4.9-10.8,10.8-10.8s10.8,4.9,10.8,10.8S20.5,60.7,14.5,60.7z M81.2,3.7c8.3,0,15.1,6.8,15.1,15.1c0,8.3-6.8,15.1-15.1,15.1
	c-8.3,0-15.1-6.8-15.1-15.1C66.1,10.5,72.8,3.7,81.2,3.7z"/>
</svg>
